/* XPM */
static char * weights2_xpm[] = {
"64 64 235 2",
"  	c None",
". 	c #DCDCDC",
"+ 	c #B3B3B3",
"@ 	c #9B9B9B",
"# 	c #909090",
"$ 	c #989898",
"% 	c #B7B7B7",
"& 	c #DADADA",
"* 	c #ECECEC",
"= 	c #B2B2B2",
"- 	c #7D7D7D",
"; 	c #949494",
"> 	c #B9B9B9",
", 	c #D3D3D3",
"' 	c #D5D5D5",
") 	c #919191",
"! 	c #818181",
"~ 	c #8D8D8D",
"{ 	c #C9C9C9",
"] 	c #E2E2E2",
"^ 	c #BBBBBB",
"/ 	c #8A8A8A",
"( 	c #999999",
"_ 	c #D9D9D9",
": 	c #F4F4F4",
"< 	c #FDFDFD",
"[ 	c #FCFCFC",
"} 	c #FBFBFB",
"| 	c #FEFEFE",
"1 	c #FFFFFF",
"2 	c #F2F2F2",
"3 	c #9A9A9A",
"4 	c #EAEAEA",
"5 	c #DDDDDD",
"6 	c #CCCCCC",
"7 	c #BEBEBE",
"8 	c #B1B1B1",
"9 	c #AAAAAA",
"0 	c #ACACAC",
"a 	c #AFAFAF",
"b 	c #BDBDBD",
"c 	c #E8E8E8",
"d 	c #C7C7C7",
"e 	c #A1A1A1",
"f 	c #ABABAB",
"g 	c #FAFAFA",
"h 	c #F7F7F7",
"i 	c #D4D4D4",
"j 	c #828282",
"k 	c #B4B4B4",
"l 	c #747474",
"m 	c #585858",
"n 	c #3D3D3D",
"o 	c #232323",
"p 	c #0D0D0D",
"q 	c #060606",
"r 	c #020202",
"s 	c #030303",
"t 	c #090909",
"u 	c #1A1A1A",
"v 	c #303030",
"w 	c #464646",
"x 	c #535353",
"y 	c #555555",
"z 	c #5E5E5E",
"A 	c #7A7A7A",
"B 	c #979797",
"C 	c #E0E0E0",
"D 	c #A5A5A5",
"E 	c #C0C0C0",
"F 	c #F5F5F5",
"G 	c #F1F1F1",
"H 	c #050505",
"I 	c #010101",
"J 	c #070707",
"K 	c #333333",
"L 	c #595959",
"M 	c #838383",
"N 	c #D1D1D1",
"O 	c #E5E5E5",
"P 	c #F0F0F0",
"Q 	c #BFBFBF",
"R 	c #C1C1C1",
"S 	c #A4A4A4",
"T 	c #B0B0B0",
"U 	c #F9F9F9",
"V 	c #EFEFEF",
"W 	c #DEDEDE",
"X 	c #D8D8D8",
"Y 	c #BABABA",
"Z 	c #CBCBCB",
"` 	c #CECECE",
" .	c #CFCFCF",
"..	c #959595",
"+.	c #545454",
"@.	c #A7A7A7",
"#.	c #B5B5B5",
"$.	c #C6C6C6",
"%.	c #CDCDCD",
"&.	c #868686",
"*.	c #C3C3C3",
"=.	c #D7D7D7",
"-.	c #D2D2D2",
";.	c #D6D6D6",
">.	c #626262",
",.	c #B8B8B8",
"'.	c #040404",
").	c #080808",
"!.	c #343434",
"~.	c #3C3C3C",
"{.	c #A9A9A9",
"].	c #C2C2C2",
"^.	c #969696",
"/.	c #F8F8F8",
"(.	c #373737",
"_.	c #F6F6F6",
":.	c #323232",
"<.	c #474747",
"[.	c #787878",
"}.	c #000000",
"|.	c #212121",
"1.	c #242424",
"2.	c #171717",
"3.	c #0A0A0A",
"4.	c #151515",
"5.	c #262626",
"6.	c #3F3F3F",
"7.	c #F3F3F3",
"8.	c #676767",
"9.	c #666666",
"0.	c #C8C8C8",
"a.	c #111111",
"b.	c #A6A6A6",
"c.	c #E3E3E3",
"d.	c #A8A8A8",
"e.	c #727272",
"f.	c #3A3A3A",
"g.	c #6C6C6C",
"h.	c #EDEDED",
"i.	c #0E0E0E",
"j.	c #9C9C9C",
"k.	c #8E8E8E",
"l.	c #E4E4E4",
"m.	c #6D6D6D",
"n.	c #131313",
"o.	c #4C4C4C",
"p.	c #929292",
"q.	c #CACACA",
"r.	c #ADADAD",
"s.	c #EBEBEB",
"t.	c #777777",
"u.	c #141414",
"v.	c #0B0B0B",
"w.	c #B6B6B6",
"x.	c #DBDBDB",
"y.	c #D0D0D0",
"z.	c #7E7E7E",
"A.	c #2C2C2C",
"B.	c #7C7C7C",
"C.	c #898989",
"D.	c #202020",
"E.	c #E1E1E1",
"F.	c #0F0F0F",
"G.	c #5B5B5B",
"H.	c #3E3E3E",
"I.	c #767676",
"J.	c #9F9F9F",
"K.	c #414141",
"L.	c #E9E9E9",
"M.	c #696969",
"N.	c #575757",
"O.	c #AEAEAE",
"P.	c #222222",
"Q.	c #EEEEEE",
"R.	c #454545",
"S.	c #C4C4C4",
"T.	c #A2A2A2",
"U.	c #565656",
"V.	c #1F1F1F",
"W.	c #393939",
"X.	c #4D4D4D",
"Y.	c #939393",
"Z.	c #494949",
"`.	c #3B3B3B",
" +	c #1D1D1D",
".+	c #808080",
"++	c #C5C5C5",
"@+	c #878787",
"#+	c #444444",
"$+	c #BCBCBC",
"%+	c #797979",
"&+	c #515151",
"*+	c #858585",
"=+	c #757575",
"-+	c #9E9E9E",
";+	c #5A5A5A",
">+	c #1E1E1E",
",+	c #434343",
"'+	c #6E6E6E",
")+	c #1B1B1B",
"!+	c #8B8B8B",
"~+	c #353535",
"{+	c #2B2B2B",
"]+	c #191919",
"^+	c #383838",
"/+	c #8C8C8C",
"(+	c #6B6B6B",
"_+	c #E6E6E6",
":+	c #7F7F7F",
"<+	c #DFDFDF",
"[+	c #4E4E4E",
"}+	c #E7E7E7",
"|+	c #1C1C1C",
"1+	c #2D2D2D",
"2+	c #888888",
"3+	c #7B7B7B",
"4+	c #A3A3A3",
"5+	c #4F4F4F",
"6+	c #848484",
"7+	c #101010",
"8+	c #616161",
"9+	c #2E2E2E",
"0+	c #A0A0A0",
"a+	c #9D9D9D",
"b+	c #121212",
"c+	c #272727",
"d+	c #0C0C0C",
"e+	c #5F5F5F",
"f+	c #181818",
"g+	c #8F8F8F",
"h+	c #606060",
"i+	c #636363",
"j+	c #505050",
"k+	c #2A2A2A",
"l+	c #6F6F6F",
"                                                                                                                                ",
"                                                                                                                                ",
"                                                                                                                                ",
"                                                                                                                                ",
"                                                                                                                                ",
"                                                                                                                                ",
"                                                                                                                                ",
"                                                                                                                                ",
"                                                                                                                                ",
"                                                                                                                                ",
"                                                                                                                                ",
"                                                                                                                                ",
"                                                                                                                                ",
"                                                                                  . + @ # $ % &                                 ",
"                                                                          * = # - ; > , . ' > ) ! ~ {                           ",
"                                                                      ] ^ / ( _ : < [ } | [ < 1 2 & 3 ~ '                       ",
"          4 5 6 7 8 9 0 a b , c                                     d e f . g } | < | 1 < < | | | < h i j k                     ",
") l m n o p q r s t u v w x y z A B C                             a D E F } 1 [ [ } g | [ [ | < 1 [ | | G $ e                   ",
"H H I H J K L M > N O * P : h : P O Q R                         S T b U [ U < h } V O W 5 X d E Y Z 6 `  .i ..0                 ",
"r r I H H +.a * g | < } < | 1 | [ [ 2 y d                     @.#.7 F U } } : ] 7 > $.%.7 &.j 9 *., =.-.;.%.$.>.,.*             ",
"'.r s r I s ).!.B c | < 1 | < < U h < ~.l                   ' {.% 4 } | | h E ].h h ' ^.> G g < 1 1 1 | 1 1 1 /. .9 *.          ",
"s r I I s I r '.H (.0 : < g < | | | _.:.<.                  ; Z ;.| g g } Z [.2 ] T b P < | | 1 1 1 1 1 1 1 1 1 1 } Z e C       ",
"}.I r s |.1.2.3.'.s 4.j * } g U U g 5 5.6.                 .T ^ 7.1 | < 2 8.9.0.{.W U g } 1 1 1 1 1 1 1 1 1 1 1 1 1 1 _ / .     ",
"}.I s a.b.c.0.d.e.f.J J g.h.g [ /.< @.i.m                 j.' b < < 1 < V z k.{.l.< [ } | 1 1 1 1 1 1 1 1 1 1 1 1 1 1 1 5 m.l.  ",
"}.I r n.6 | [ 1 } /.l.# o.l 2 h } h.K '.-                 p.q.c.| | [ g 4 $.r.s.< g 1 1 1 1 1 1 1 1 1 1 1 1 1 1 1 1 1 1 1 i t.4 ",
"}.I I u.Z < U < g } < } s.R _ } 7.- s v.{.              N w.#.} [ < | h d b x.U [ | 1 1 1 1 1 1 1 1 1 1 1 1 1 1 1 1 1 1 1 | T B ",
"s I '.4.% < [ | [ U | [ U < U U ; i.'.5._               ^ %.w.[ g g g ;.y.,.[ | 1 1 1 1 1 1 1 1 1 1 1 1 1 1 1 1 1 1 1 1 1 1 V z.",
"H '.A.B.j.U } Z g } | < } } | G C.D.'.g.                = -.Y 1 | [ h Q 7 E.1 1 1 1 1 1 1 1 1 1 1 1 1 1 1 1 1 1 1 1 1 1 1 1 < i ",
"s t F.8 O U Z v . [ [ | [ } | } U i G.H.0               r.-.^ < [ } , 5 Y < 1 1 1 1 1 1 1 1 1 1 1 1 1 1 1 1 1 1 1 1 1 1 1 1 < _.",
"J 3.q I.g P x '.d.< | < [ } [ [ < [ 7.J.K.B.L.          T q.% | [ /.$.q.' 1 1 1 1 1 1 1 1 1 1 1 1 1 1 1 1 1 1 1 1 1 1 1 1 1 | < ",
"s K.M.N.L.O.F.'.z _.| < g < [ 1 < [ g } ;.x m x.        R % k < < P ` R c 1 1 1 1 1 1 1 1 1 1 1 1 1 1 1 1 1 1 1 1 1 1 1 1 1 1 1 ",
"r D.%.2 g B H '.P.x.< [ | 1 | 1 1 1 | 1 1 Q.A R.X       C k.S.] } h.i = g 1 1 1 1 1 1 1 1 1 1 1 1 1 1 1 1 1 1 1 1 1 1 1 1 1 1 1 ",
"F.T.h | } r.3.r H @ } < 1 1 1 1 1 1 1 1 1 1 Q.B.U.4       M.>.@.} & L.O.< 1 1 1 1 1 1 1 1 1 1 1 1 1 | | 1 1 1 1 1 1 1 1 1 1 1 1 ",
"m.g | } | , V.I H W.4 } 1 1 1 1 1 1 1 1 1 | } 7.X.Y.      T.3.N.G ]._.0 < < 1 1 1 1 1 1 1 1 1 1 1 | | | | 1 1 1 1 1 1 1 1 1 1 1 ",
"-.g [ [ 1 G w I I p C.[ 1 1 1 1 1 1 1 1 1 1 } g S Z.      C `.4.R ,._.+ | < 1 1 1 1 1 1 1 1 1 1 1 | 1 1 | 1 1 1 1 1 1 1 1 1 1 1 ",
"h [ < | [ < ! s '.s  +, | | | 1 1 | 1 | 1 1 /.} *.!.W       f .+D #.P 0 < [ 1 1 1 1 1 1 1 1 1 1 1 | 1 | < < 1 1 1 1 1 1 1 1 1 1 ",
"< 1 < | 1 < ++i.}.s I 6.] } < | | U 1 } _ d /./.Z :..         @+#.@+. O.< < | | 1 1 1 1 1 1 | [ < | g } } } < 1 1 1 1 1 1 1 1 1 ",
"< 1 | 1 [ 1 Q.o.s s '.s #+{ h g < U s.M 2.z.U g D f.l.          e R $+7 h.1 } [ 1 1 1 1 1 1 1 | [ [ < < } g } 1 1 1 1 1 1 1 1 1 ",
"< | | | [ | < d.'.r s s J 5.~ ;.h._.%+3.H @+g G &+y             ;.*+@ q.. [ | | 1 1 1 1 1 1 1 1 < U 7._.g < | 1 1 1 1 1 1 1 1 1 ",
"g [ < | < < } /.(.'.s q }.'.'.1.b.7 ).r v.=+: @ v.!         O -+;+>+`.. R | 1 < 1 1 1 1 1 1 1 1 | < [ < | | | 1 1 1 1 1 1 1 1 g ",
"5 < U | [ [ < [ d 5.r r '.r s v { ,+J H q :.'+a.i.y.s.7 B.6.v.).)+y ( ++r.Q.U } | 1 1 1 1 1 1 1 1 1 < | 1 1 1 1 1 1 1 1 | < 1 W ",
"!+U } | < | [ < _.w.~+s s s {+> x.!+b.m.]+r q s V.G.^+K H.M.B S.. 2 g ,.-.% g < < 1 1 1 1 1 1 1 1 1 1 1 1 1 1 1 1 1 1 [ g | /./+",
"V.' /.1 | | } | h g x.# (+j N } [ } _+k.{+J H F.`.t.f i : [ | } < [ | 5 E :+c.[ < 1 1 1 1 1 1 1 1 1 1 1 1 1 1 1 1 1 1 | } [ Q !+",
"'.:.y.| [ 1 < < 1 g } g } } _./.h [ < 6 A.:.*+i g g < [ < 1 [ [ [ [ g g d |.N.c < 1 1 1 1 1 1 1 1 1 1 1 1 1 1 1 1 1 1 [ } <+t.c.",
"r s [+P < < | < [ [ /.< [ < g < U [ < : = }+U < < | < | | } U } g < < | U k |+l G 1 1 1 1 1 1 1 1 1 1 1 1 1 1 1 1 1 1 < W %+y.  ",
"H r 1+_ [ g | _.h [ | } | | 1 1 1 | < | } | < | | 1 1 1 | 1 1 1 1 < [ 1 < } <.2+T.* < | | 1 1 1 1 1 | < | 1 [ < < | } & 3+++    ",
"r s 3.= [ g F !+. 1 < | 1 1 1 1 1 < } [ | } 1 1 | | 1 1 1 1 1 1 | 1 1 } } $.F.)+o.4+, U g 1 | 1 1 < < } | < [ } g [ O.[.i       ",
"s s I 5+: } ;.V.*.g | < 1 1 1 1 1 | } U | < 1 1 1 < 1 1 1 1 1 | 1 < | [ h.G.r '.v.<.6+S -./.| | [ [ < [ [ | | h.R [.T.s.        ",
"H I I 7+{.U @ r @ [ < } 1 1 1 1 | < } < C g | 1 1 | 1 1 1 1 1 [ 1 < 1 } ^ F.s J r J W..+B.8+B ` <+l._+c.W $.3 B.3 ;.            ",
"7+s r r D.b m r 8.U < } 1 1 1 1 1 | ' * J.7 [ 1 1 1 1 1 1 1 1 | < | g 7 9+}.'.I H >+*.  c.#.0+# 2+j M j 6+a+S.                  ",
"=+).'.s s u.7+}.f.L.< } g [ < } < 1 0 C.= u O./.%.Q.< [ } [ 1 < [ h.!+b+q I H s c+$.                                            ",
"4 N.t r s s s r p 6 < | } } g [ | [ d.o 2+F.>+M ! 8+_ /.[ < /./.0.U.d+J '.s r A.,.                                              ",
"  }++.J H 3.'.r r *+} | } < } _.< | ^ a.F.i.s H a.H 9+/+l.7.q.m.)+r H H r H 5.*.                                                ",
"      /+u q s q s {+E.| 9 T } | < g C o ).H '.q '.I s J H 3.q J r H r H '.`.l.                                                  ",
"        Q f.v.s s t ..g ~ |.f F [ } U L H r '.r s I I s r r '.H q r s v.e+5                                                     ",
"          l.! f+s '.5._+4+'.4.g+4 < < ,.u s I I I }.}.r }.r r r I ).)..+s.                                                      ",
"              =+s s '.h+b ]+).s 6.r.7._.2+3.I }.s I I }.r s s '.H c+O.                                                          ",
"              _ v.r '.t i+9+r s H 7+(.j D R.H }.I I I H I s q ).j+6                                                             ",
"                '+J r H p d+I J r r '.q t J s }.}.}.s I s '.f+6+}+                                                              ",
"                c.W.s r I '.s }.r '.r r '.r I s '.I I r a.>.Z                                                                   ",
"                  0.k+H '.s s J r }.}.}.}.}.q s ).t A.l+'                                                                       ",
"                    7 f+'.r r I r }.}.}.}.r s n.e.d.x.                                                                          ",
"                      b c+H s s I }.}.}.}.I v.!                                                                                 ",
"                        X h+d+s s }.}.}.}.s g.                                                                                  "};
