/* XPM */
static char * weights_xpm[] = {
"64 64 235 2",
"  	c None",
". 	c #FFFFFF",
"+ 	c #FDFDFD",
"@ 	c #FEFEFE",
"# 	c #FBFBFB",
"$ 	c #FCFCFC",
"% 	c #F7F7F7",
"& 	c #F6F6F6",
"* 	c #F8F8F8",
"= 	c #DCDCDC",
"- 	c #B3B3B3",
"; 	c #9B9B9B",
"> 	c #909090",
", 	c #989898",
"' 	c #B7B7B7",
") 	c #DADADA",
"! 	c #F4F4F4",
"~ 	c #FAFAFA",
"{ 	c #ECECEC",
"] 	c #B2B2B2",
"^ 	c #7D7D7D",
"/ 	c #949494",
"( 	c #B9B9B9",
"_ 	c #D3D3D3",
": 	c #D5D5D5",
"< 	c #919191",
"[ 	c #818181",
"} 	c #8D8D8D",
"| 	c #C9C9C9",
"1 	c #E2E2E2",
"2 	c #BBBBBB",
"3 	c #8A8A8A",
"4 	c #999999",
"5 	c #D9D9D9",
"6 	c #F2F2F2",
"7 	c #9A9A9A",
"8 	c #F3F3F3",
"9 	c #F0F0F0",
"0 	c #EAEAEA",
"a 	c #DDDDDD",
"b 	c #CCCCCC",
"c 	c #BEBEBE",
"d 	c #B1B1B1",
"e 	c #AAAAAA",
"f 	c #ACACAC",
"g 	c #AFAFAF",
"h 	c #BDBDBD",
"i 	c #E8E8E8",
"j 	c #C7C7C7",
"k 	c #A1A1A1",
"l 	c #ABABAB",
"m 	c #D4D4D4",
"n 	c #828282",
"o 	c #B4B4B4",
"p 	c #747474",
"q 	c #585858",
"r 	c #3D3D3D",
"s 	c #232323",
"t 	c #0D0D0D",
"u 	c #060606",
"v 	c #020202",
"w 	c #030303",
"x 	c #090909",
"y 	c #1A1A1A",
"z 	c #303030",
"A 	c #464646",
"B 	c #535353",
"C 	c #555555",
"D 	c #5E5E5E",
"E 	c #7A7A7A",
"F 	c #979797",
"G 	c #E0E0E0",
"H 	c #EFEFEF",
"I 	c #A5A5A5",
"J 	c #C0C0C0",
"K 	c #F5F5F5",
"L 	c #F1F1F1",
"M 	c #F9F9F9",
"N 	c #050505",
"O 	c #010101",
"P 	c #070707",
"Q 	c #333333",
"R 	c #595959",
"S 	c #838383",
"T 	c #D1D1D1",
"U 	c #E5E5E5",
"V 	c #BFBFBF",
"W 	c #C1C1C1",
"X 	c #A4A4A4",
"Y 	c #B0B0B0",
"Z 	c #DEDEDE",
"` 	c #D8D8D8",
" .	c #BABABA",
"..	c #CBCBCB",
"+.	c #CECECE",
"@.	c #CFCFCF",
"#.	c #959595",
"$.	c #545454",
"%.	c #A7A7A7",
"&.	c #B5B5B5",
"*.	c #C6C6C6",
"=.	c #CDCDCD",
"-.	c #868686",
";.	c #C3C3C3",
">.	c #D7D7D7",
",.	c #D2D2D2",
"'.	c #D6D6D6",
").	c #626262",
"!.	c #B8B8B8",
"~.	c #040404",
"{.	c #080808",
"].	c #343434",
"^.	c #3C3C3C",
"/.	c #A9A9A9",
"(.	c #C2C2C2",
"_.	c #969696",
":.	c #373737",
"<.	c #323232",
"[.	c #474747",
"}.	c #787878",
"|.	c #000000",
"1.	c #212121",
"2.	c #242424",
"3.	c #171717",
"4.	c #0A0A0A",
"5.	c #151515",
"6.	c #262626",
"7.	c #3F3F3F",
"8.	c #676767",
"9.	c #666666",
"0.	c #C8C8C8",
"a.	c #111111",
"b.	c #A6A6A6",
"c.	c #E3E3E3",
"d.	c #A8A8A8",
"e.	c #727272",
"f.	c #3A3A3A",
"g.	c #6C6C6C",
"h.	c #EDEDED",
"i.	c #0E0E0E",
"j.	c #9C9C9C",
"k.	c #8E8E8E",
"l.	c #E4E4E4",
"m.	c #6D6D6D",
"n.	c #131313",
"o.	c #4C4C4C",
"p.	c #929292",
"q.	c #CACACA",
"r.	c #ADADAD",
"s.	c #EBEBEB",
"t.	c #777777",
"u.	c #141414",
"v.	c #0B0B0B",
"w.	c #B6B6B6",
"x.	c #DBDBDB",
"y.	c #D0D0D0",
"z.	c #7E7E7E",
"A.	c #2C2C2C",
"B.	c #7C7C7C",
"C.	c #898989",
"D.	c #202020",
"E.	c #E1E1E1",
"F.	c #0F0F0F",
"G.	c #5B5B5B",
"H.	c #3E3E3E",
"I.	c #767676",
"J.	c #9F9F9F",
"K.	c #414141",
"L.	c #E9E9E9",
"M.	c #696969",
"N.	c #575757",
"O.	c #AEAEAE",
"P.	c #222222",
"Q.	c #EEEEEE",
"R.	c #454545",
"S.	c #C4C4C4",
"T.	c #A2A2A2",
"U.	c #565656",
"V.	c #1F1F1F",
"W.	c #393939",
"X.	c #4D4D4D",
"Y.	c #939393",
"Z.	c #494949",
"`.	c #3B3B3B",
" +	c #1D1D1D",
".+	c #808080",
"++	c #C5C5C5",
"@+	c #878787",
"#+	c #444444",
"$+	c #BCBCBC",
"%+	c #797979",
"&+	c #515151",
"*+	c #858585",
"=+	c #757575",
"-+	c #9E9E9E",
";+	c #5A5A5A",
">+	c #1E1E1E",
",+	c #434343",
"'+	c #6E6E6E",
")+	c #1B1B1B",
"!+	c #8B8B8B",
"~+	c #353535",
"{+	c #2B2B2B",
"]+	c #191919",
"^+	c #383838",
"/+	c #8C8C8C",
"(+	c #6B6B6B",
"_+	c #E6E6E6",
":+	c #7F7F7F",
"<+	c #DFDFDF",
"[+	c #4E4E4E",
"}+	c #E7E7E7",
"|+	c #1C1C1C",
"1+	c #2D2D2D",
"2+	c #888888",
"3+	c #7B7B7B",
"4+	c #A3A3A3",
"5+	c #4F4F4F",
"6+	c #848484",
"7+	c #101010",
"8+	c #616161",
"9+	c #2E2E2E",
"0+	c #A0A0A0",
"a+	c #9D9D9D",
"b+	c #121212",
"c+	c #272727",
"d+	c #0C0C0C",
"e+	c #5F5F5F",
"f+	c #181818",
"g+	c #8F8F8F",
"h+	c #606060",
"i+	c #636363",
"j+	c #505050",
"k+	c #2A2A2A",
"l+	c #6F6F6F",
". . . . . . . . . . . . . . . . . . . . . . . . . . . . . . . . . . . . . . . . . . . . . . . . . . . . . . . . . . . . . . . . ",
". . . . . . . . . . . . . . . . . . . . . . . . . . . . . . . . . . . . . . . . . . . . . . . . . . . . . . . . . . . . . . . . ",
". . . . . . . . . . . . . . . . . . . . . . . . . . . . . . . . . . . . . . . . . . . . . . . . . . . . . . . . . . . . . . . . ",
". . . . . . . . . . . . . . . . . . . . . . . . . . . . . . . . . . . . . . . . . . . . . . . . . . . . . . . . . . . . . . . . ",
". . . . . . . . . . . . . . . . . . . . . . . . . . . . . . . . . . . . . . . . . . . . . . . . . . . . . . . . . . . . . . + . ",
". . . . . . . . . . . . . . . . . . . . . . . . . . . . . . . . . . . . . . . . . . . . . . . . . . . . . . . . . . . . . @ # . ",
". . . . . . . . . . . . . . . . . . . . . . . . . . . . . . . . . . . . . . . . . . . . . . . . . . . . . . . . . . . . . @ @ @ ",
". . . . . . . . . . . . . . . . . . . . . . . . . . . . . . . . . . . . . . . . . . . . . . . . . . . . . . . . . . . . . @ . @ ",
". . . . . . . . . . . . . . . . . . . . . . . . . . . . . . . . . . . . . . . . . . . . . . . . . . . . . . . . . . . . . . . . ",
". . . . . . . . . . . . . . . . . . . . . . . . . . . . . . . . . . . . . . . . . . . . . . . . . . . . . . . . . . . . . . . . ",
". . . . . . . . . . . . . . . . . . . . . . . . . . . . . . . . . . . . . . . . . . . . . . . . . . . . . . . . . . @ . . . . . ",
". . . . . . . . . . . . . . . . . . . . . . . . . . . . . . . . . . . . . . . @ . @ . @ . . @ . . . . . . . . . . @ $ @ . . . . ",
". . . . . . . . . . . . . . . . . . . . . . . . . . . . . . . . . . + @ @ + @ @ @ @ @ @ . + @ + . . . . . . . . . @ . . . . . . ",
". . . . . . . . . . . . . . . . . . . . . . . . . . . . . . . + . @ $ @ + % + & * = - ; > , ' ) ! $ @ + . + . . . . . . . . . . ",
". . . . @ . . . . . . . . . . . . . . . . . . . . . . . . . . ~ $ + $ + + { ] > ^ / ( _ = : ( < [ } | $ @ . @ . . . . . . . . . ",
". . . @ @ . @ + @ @ @ . . . . @ @ . . . . . . . . . . . . . . ~ + $ # 1 2 3 4 5 ! + $ # @ $ + . 6 ) 7 } : * + . . . . . . . . . ",
"@ $ * 8 9 0 a b c d e f g h _ i 6 + @ . . . . . . . . . . . @ ~ * & j k l = ~ # @ + @ . + + @ @ @ + % m n o # @ . . @ . . . . . ",
"< p q r s t u v w x y z A B C D E F G ~ + $ . . . . . @ $ @ $ ~ H g I J K # . $ $ # ~ @ $ $ @ + . $ @ @ L , k % $ # M + $ . $ $ ",
"N N O N P Q R S ( T U { 9 ! % ! 9 U V W 8 $ . . . . + @ $ + $ ! X Y h M $ M + % # H U Z a ` j J  ...b +.@.m #.f % # # @ + $ @ + ",
"v v O N N $.g { ~ @ + # + @ . @ $ $ 6 C j + . . . . + + . M # %.&.c K M # # ! 1 c ( *.=.c -.n e ;._ >.,.'.=.*.).!.{ # # # @ $ @ ",
"~.v w v O w {.].F i @ + . @ + + M % + ^.p + . . . . @ ~ @ $ : /.' 0 # @ @ % J (.% % : _.( L ~ + . . . @ . . . * @.e ;.6 @ ~ + + ",
"w v O O w O v ~.N :.f ! + ~ + @ @ @ & <.[.# . . . . + + @ 9 / ..'.@ ~ ~ # ..}.6 1 Y h 9 + @ @ . . . . . . . . . . # ..k G ~ + + ",
"|.O v w 1.2.3.4.~.w 5.n { # ~ M M ~ a 6.7.. . . . . @ @ # @.Y 2 8 . @ + 6 8.9.0./.Z M ~ # . . . . . . . . . . . . . . 5 3 = $ $ ",
"|.O w a.b.c.0.d.e.f.P P g.h.~ $ * + %.i.q $ . . . . + + + j.: h + + . + H D k./.l.+ $ # @ . . . . . . . . . . . . . . . a m.l.~ ",
"|.O v n.b @ $ . # * l.> o.p 6 % # h.Q ~.^ + . . . . @ $ 6 p.q.c.@ @ $ ~ 0 *.r.s.+ ~ . . . . . . . . . . . . . . . . . . . m t.0 ",
"|.O O u...+ M + ~ # + # s.W 5 # 8 ^ w v./.. . . . . + . T w.&.# $ + @ % j h x.M $ @ . . . . . . . . . . . . . . . . . . . @ Y F ",
"w O ~.5.' + $ @ $ M @ $ M + M M / i.~.6.5 @ @ # . $ @ @ 2 =.w.$ ~ ~ ~ '.y.!.$ @ . . . . . . . . . . . . . . . . . . . . . . H z.",
"N ~.A.B.j.M # ..~ # @ + # # @ L C.D.~.g.~ M @ # + # $ # ] ,. .. @ $ % V c E.. . . . . . . . . . . . . . . . . . . . . . . . + m ",
"w x F.d U M ..z = $ $ @ $ # @ # M m G.H.f * @ $ # ~ + $ r.,.2 + $ # _ a  .+ . . . . . . . . . . . . . . . . . . . . . . . . + & ",
"P 4.u I.~ 9 B ~.d.+ @ + $ # $ $ + $ 8 J.K.B.L.* $ ~ # . Y q.' @ $ * *.q.: . . . . . . . . . . . . . . . . . . . . . . . . . @ + ",
"w K.M.N.L.O.F.~.D & @ + ~ + $ . + $ ~ # '.B q x.M @ @ . W ' o + + 9 +.W i . . . . . . . . . . . . . . . . . . . . . . . . . . . ",
"v D.=.6 ~ F N ~.P.x.+ $ @ . @ . . . @ . . Q.E R.` ~ @ @ G k.S.1 # h.m ] ~ . . . . . . . . . . . . . . . . . . . . . . . . . . . ",
"F.T.% @ # r.4.v N ; # + . . . . . . . . . . Q.B.U.0 @ $ ~ M.).%.# ) L.O.+ . . . . . . . . . . . . . @ @ . . . . . . . . . . . . ",
"m.~ @ # @ _ V.O N W.0 # . . . . . . . . . @ # 8 X.Y.$ $ + T.4.N.L (.& f + + . . . . . . . . . . . @ @ @ @ . . . . . . . . . . . ",
",.~ $ $ . L A O O t C.$ . . . . . . . . . . # ~ X Z.h.$ $ G `.5.W !.& - @ + . . . . . . . . . . . @ . . @ . . . . . . . . . . . ",
"% $ + @ $ + [ w ~.w  +_ @ @ @ . . @ . @ . . * # ;.].Z $ + $ l .+I &.9 f + $ . . . . . . . . . . . @ . @ + + . . . . . . . . . . ",
"+ . + @ . + ++i.|.w O 7.1 # + @ @ M . # 5 j * * ..<.= + @ @ & @+&.@+= O.+ + @ @ . . . . . . @ $ + @ ~ # # # + . . . . . . . . . ",
"+ . @ . $ . Q.o.w w ~.w #+| % ~ + M s.S 3.z.M ~ I f.l.+ . . @ 9 k W $+c h.. # $ . . . . . . . @ $ $ + + # ~ # . . . . . . . . . ",
"+ @ @ @ $ @ + d.~.v w w P 6.} '.h.& %+4.N @+~ L &+C 8 $ + . . + '.*+; q.= $ @ @ . . . . . . . . + M 8 & ~ + @ . . . . . . . . . ",
"~ $ + @ + + # * :.~.w u |.~.~.2.b.c {.v v.=+! ; v.[ # # # % U -+;+>+`.= W @ . + . . . . . . . . @ + $ + @ @ @ . . . . . . . . ~ ",
"a + M @ $ $ + $ j 6.v v ~.v w z | ,+P N u <.'+a.i.y.s.c B.7.v.{.)+C 4 ++r.Q.M # @ . . . . . . . . . + @ . . . . . . . . @ + . Z ",
"!+M # @ + @ $ + & w.~+w w w {+( x.!+b.m.]+v u w V.G.^+Q H.M.F S.= 6 ~ !.,.' ~ + + . . . . . . . . . . . . . . . . . . $ ~ @ * /+",
"V.: * . @ @ # @ % ~ x.> (+n T # $ # _+k.{+P N F.`.t.l m ! $ @ # + $ @ a J :+c.$ + . . . . . . . . . . . . . . . . . . @ # $ V !+",
"~.<.y.@ $ . + + . ~ # ~ # # & * % $ + b A.<.*+m ~ ~ + $ + . $ $ $ $ ~ ~ j 1.N.i + . . . . . . . . . . . . . . . . . . $ # <+t.c.",
"v w [+9 + + @ + $ $ * + $ + ~ + M $ + ! ] }+M + + @ + @ @ # M # ~ + + @ M o |+p L . . . . . . . . . . . . . . . . . . + Z %+y.+ ",
"N v 1+5 $ ~ @ & % $ @ # @ @ . . . @ + @ # @ + @ @ . . . @ . . . . + $ . + # [.2+T.{ + @ @ . . . . . @ + @ . $ + + @ # ) 3+++# * ",
"v w 4.] $ ~ K !+= . + @ . . . . . + # $ @ # . . @ @ . . . . . . @ . . # # *.F.)+o.4+_ M ~ . @ . . + + # @ + $ # ~ $ O.}.m @ ! # ",
"w w O 5+! # '.V.;.~ @ + . . . . . @ # M @ + . . . + . . . . . @ . + @ $ h.G.v ~.v.[.6+X ,.* @ @ $ $ + $ $ @ @ h.W }.T.s.~ M $ ~ ",
"N O O 7+/.M ; v ; $ + # . . . . @ + # + G ~ @ . . @ . . . . . $ . + . # 2 F.w P v P W..+B.8+F +.<+l._+c.Z *.7 B.7 '.+ + # $ % $ ",
"7+w v v D.h q v 8.M + # . . . . . @ : { J.c $ . . . . . . . . @ + @ ~ c 9+|.~.O N >+;.K c.&.0+> 2+n S n 6+a+S.! + $ $ $ # @ $ # ",
"=+{.~.w w u.7+|.f.L.+ # ~ $ + # + . f C.] y O.* =.Q.+ $ # $ . + $ h.!+b+u O N w c+*.$ @ $ . . @ + $ # $ + . . . . . . . . . . . ",
"0 N.x v w w w v t b + @ # # ~ $ @ $ d.s 2+F.>+S [ 8+5 * $ + * * 0.U.d+P ~.w v A.!.# # @ + . . . . . . . . . . . . . . . . . . . ",
"~ }+$.P N 4.~.v v *+# @ # + # & + @ 2 a.F.i.w N a.N 9+/+l.8 q.m.)+v N N v N 6.;.# @ # . @ . . . . . . . . . . . . . . . . . . . ",
"# $ & /+y u w u w {+E.@ e Y # @ + ~ G s {.N ~.u ~.O w P N 4.u P v N v N ~.`.l.K $ @ @ $ @ . . . . . . . . . . . . . . . . . . . ",
"@ + + M V f.v.w w x #.~ } 1.l K $ # M R N v ~.v w O O w v v ~.N u v w v.e+a $ @ @ @ @ @ + . . . . . . . . . . @ . @ . . . . . . ",
". . . $ % l.[ f+w ~.6._+4+~.5.g+0 + + !.y w O O O |.|.v |.v v v O {.{..+s.$ @ . . . . . . . @ . . . . @ . . . @ @ + . . . . . . ",
". . + $ @ @ * =+w w ~.h+h ]+{.w 7.r.8 & 2+4.O |.w O O |.v w w ~.N c+O.$ @ . . . . . . . . . . . . . . . . . . . . . . . . . . . ",
". . @ @ $ $ @ 5 v.v ~.x i+9+v w N 7+:.n I R.N |.O O O N O w u {.j+b + . . . . . . . . . . . . . . . . . . . . . . . . . . . . . ",
". . @ $ $ + + $ '+P v N t d+O P v v ~.u x P w |.|.|.w O w ~.f+6+}++ . . . . . . . . . . . . . . . . . . . . . . . . . . . . . . ",
". . . . . @ . @ c.W.w v O ~.w |.v ~.v v ~.v O w ~.O O v a.)...+ $ $ . . . . . . . . . . . . . . . . . . . . . . . . . . . . . . ",
". . . . . . . # M 0.k+N ~.w w P v |.|.|.|.|.u w {.x A.l+: & $ ~ @ . . . . . . . . . . . . . . . . . . . . . . . . . . . . . . . ",
". . . . . . . @ M ~ c f+~.v v O v |.|.|.|.v w n.e.d.x.% M + @ $ @ . . . . . . . . . . . . . . . . . . . . . . . . . . . . . . . ",
". . . . . . . . M + M h c+N w w O |.|.|.|.O v.[ $ M * % # # @ $ . . . . . . . . . . . . . . . . . . . . . . . . . . . . . . . . ",
". . . . . . . $ + $ $ # ` h+d+w w |.|.|.|.w g.L ~ # @ + . + + @ @ . . . . . . . . . . . . . . . . . . . . . . . . . . . . . . . "};
