/* XPM */
static char * granite_xpm[] = {
"128 128 7 1",
" 	c None",
".	c #656565",
"+	c #CCCCCC",
"@	c #989898",
"#	c #333333",
"$	c #FFFFFF",
"%	c #000000",
"...+@...@@@+.@.@..@@@@.@@...++@@@+@+....@@@.@.@@.#@.....@.@+@@@@@@@@..@@@.@@@+@.@@@.@@@@@@@@@@@@..#..@@@.@.@@@@@.@.@+@....@.@.@@",
"@@.@.@@+@@@.#.....@@@@@@..@@+@..++..#.@.@@.@.####@@@@.@+@@@@.@@...@@@..@#@@@@@..@@@@+@...@+@@@.@@.@.@...@.@.@..@.@@+@+@.@@@@@@@@",
"..@@@@+@@@.....@.@++@++...@+@@@@@.@#..@@...###....@@@.@@@@@@@@.#@@...#...@@@@.@.@@@.@@.@@@@@@..@...@.+@@@......@.@@++@.#@@@..@@@",
".@@@.@.@@@.@@@@.@.@@@@.@@.$@@@@@@@.#@.@....#...@@@...@@@@@@...#..@..@.@+@@@...@@@@..@@..@@@@.@@@@.@.@...@...@@@@@@$@@...+@..+@..",
"..@#@+.+..@+@+.@.@@+@@@+@+@@@@.+@@#....@....@.@....@.@+@@......@@..@.@+@@+.@.@.+@..@@@..@@@@.@@+@@@...@@@#.@@@@@+@+@.@@@@.@@@.@@",
"@@@@+@@.#..@.@@@@@++@@@.@....@..@.@.@@@@@@.@@@+@..@++@@..@..@@@.....@.@....@+@@...@.@.#...@@...@#.#@#@.@....@@@@.@..@#@..#.@.@..",
"@@...@..#@@@@+@@@+++@.@..#..@@@@....@.@.@@@@+@@..@@@+...@+#.@..@#@.@@.@....+@@@@.+@#..#@.@.@.@.@#..@..@@@..@@@@....+#.....@@@+@.",
"@@.@@@.@+@@@@.@.@@+@.@......@+.@.....@.@@@.@@@..@@@@.@..@.@..@@@..@@.@...@@@.@..@...@...@@@.@#@..#..##@@.@@.@@..@.@+@@.+..@++@..",
"+@@@.@.@@.@+@@.@.+@.@.@.#@@@+@.@....@..@+@@+@.@.@@@@@@@@@@.#+@+@.@..@@@..@@.@@..@....##@.@@@.........@@@@@@@@@...@@@@.@@@.@@+..@",
"@@@@@@@@.@..@@...@.#...#@@@@.@@.@.@@....+@@...@@@@@@@@@....@@+...@......@@@+@@..@@.@..@.@@@.#.......@@.@@..@@@@+@@....@#.#+.@@@.",
"@+..@@@@..@@....@+@.....@..#@@#@....@.@@@@@@..@@@+@@@@#.@@.@@@@#@.@@@@.@@++.+..@@.@+.@.+.@.#@.#..@@@@@@.@@@@..@@@@@.@@##..@..@.@",
"@@...@.@..@@+.@@@@#...@.@.@.@@@..@#...@@@@.@.@+@@...@@......@@#..@..+.@+@..+.@.@#@.........#.....@...@@@+@.@..@@.@.@@@#@@@..@.@@",
"@@..@..@@@@@.@@@@@#.@.#..@@.@.....@@..@.@@..@++.@@.@.@##...@....@@@@@.@@@@+@.@..@.@....@..#.@...@@@@@@@@@...@@+.@@.@@#.@@+@@@@..",
"@...@......@@.@@@...@@.+@@...@...@..#....@.@+@..@@...@#...@.........#@..#.@...@....@.@........@.@....@.....@.@.@@.....@@@@@@@@+@",
".@.@.#@@@@@+..@@@@.@@.+@+...@@.@.@.#.....@++@@.@@...@@.@.@@..@.#.#.#.@...@@.@@@#...+.@...@@..@.@.@..@@..#.@@@.....@..+@.@@@@@@+@",
"..@@@.@...@@@++@@@...@.@...@@..@.@...@.@+.@@@@#.@@.....###..#.#....@@...@@@@.....@...@....#.@@@..#.#......@..@@@@@@++@@+@@@@@+@+",
".@@@#.@.@.++@@@@+.@@.@.@...@..@.@@...@@+..@@....@..#@##%.#@....#.#@@@.@@@@@#@##.@..@.@....@.@@@@@.#.@.#..#...+@@@@++@@@@@@@@@+@@",
"@...@@..@@@@@@@@.@@@@.@..#.@#@+@@@.@@.@..+@+@@.@@@....#.@.@@#...#....@@@..#@..@.@...@@.#@..@+..@#...@.@@#.+@+@.@..@@...#.@@@@@.@",
"..@@.@+@@.+@@.@@.+.@.@.@....@+@@@#@..#.@@@+..@.+@......@..@....#.#..@.@....@..@.........@@@@@..........@#.@@+@@@.@@..@...++@@@..",
"@@@@.@....@@@@+@+@..+@..@.@@+@.##.@@.@.@..@.+@@...@@##...#@...@@@..@@...#.@..@@..@.@.@..@..@.@#.....@.@..@@+.@.@...@.#..@.@.@...",
"@@@+.@.......@@+.@.@@..@.@+@@..@#.@..@@@@@@.@.@@@..........@..@...@+.#...@..@@..@......@.@@.@.....@@@#@#..@@@@@..@.....@@@..@..@",
"@....#...@@@@@.....#..#.#..@.......@..@.@@@@........##.....@.....@@.@...@+@@..@@.@@@.+@.@.....#..@.@....@@.@@.@..@.@.@.@..@.@@@.",
".@@@##...@@@@+...@....#...@.@@..#@.@@...@.@..+@.....##.@#.......#@..#.@@++@....@..@@@@@@..#..#...@@....@.@@@.@......@+@@#@...@..",
"@.@.#..@@+@@@+#.@......#.@.....#.#..@.+.....@.#.@...##.@.#.@.........@.@@@.@@@@@.@@..........@@.@.......+.@.....#.@@@....@+@@@@.",
"@+@....@@@@@@@.@.@#...##@@..@@....@.@@.@.@@....@.#.#...@#.#......@.@.@@.+@.@@.@@.@.....#@@..@#....#.@..@@@...@...+.@.@...@@.@..@",
"..#..#@.@@@......@...@..@@.@.@..##@@@.@.@@..@..@#.#.......@.@...##.....+.@@.#.@@.@.@@....@.@.@@@@.@.@..@@@.@@@@@@.@#.@##.@....@.",
"@@#..#@@++.....@..@@...@.@..@.##..@@...@...#@@@@...@..@..@@.....#...##@@+@.#..@..@.@........@.@@.@..@.........@.+...@@...@...#.#",
"@@#..@.+@+..@.@@.@@@@..@@...#....@+@@@@...#@@@.#..@.....@....@......@@@@...@@@@@@.@...@...@@.@@..#@@.@@@@@@@.@.@#@..@@#.@...#.@@",
"@..@@.@+@@..@@.@.@+@+@..@...#.#.@@@@@@....@@@....@....@..@#.....#@..@.@.....@.+@@@.#.....@.@@@..@@.#@.@@@@.@..@..@..@..@.#.#....",
"..@.@@+@......@@@..@.#@.+@.@@@@+@@@@@.#.@@.@@..@@.....@......@....@@.@.@@@@@.@.@.@@@@@.@.@+@.......@@..@@.@.@@@@@@@@@.....@@@@@.",
"@@....@.@@@.@@.@.%.....@.@.@.+++..@@.#.@..+@..@@@@.@@+@.@@.#@@..@..@@..+@@.@@@.@@@@.@..@@@@+#@@@...@@@@.@@.@.@@@@@@@...@.@@@@@@@",
".@@@+@@@..@..@@....@..@..@@.+@@@..@@.@+@.@+@....@.@+@..@.##.@@...#.@.@+@@@@@..@@+@@@....@..@......@@.@.@@+.@@@@@@@.@..@.@.@@@@@@",
".@@@@.@.@@...@@..#.@#..@@@.@+.@@.@@@@.@.@@@...@@..@......##@.@..##@@.+@@@..@.@.+@+@...@.@..@......@.@@@@@.@.@@@@@..@.#..@+@@@@.@",
"@@@@@@@+@@.@@@#..#.@@.@..@@......@@@.@@@@@@@.@@@@@....#.##@.@...#.@@@@#@#@@.@.+@@+.@...@.@..@@..@.@@.@.@@@..@..@..@...+@+@@.+..@",
"@@@@@.@@+@..@......@.@...@.....@@@@.@@.@@@@@@@@@...@.##..@....##..@.@#..@.@..#@++@@.#..@@@..@@..@@@.@@@+@#@..@@@...@..@@...@@.@+",
".@@@..@@.@#@@@#.@@@..@@@+@.@.@@@@@....@....@..@...@##.@...##.#.#.....@@..@@@#@+@@.##.#@@...@+@@....@@.+..@@..@..#@@@..@@@@..#..@",
"@.@@@....@.@.#@....@@@@@......@@@@...@...@.@.....@.#.......#..#.........@@@.@@+@@.....@@.@..@@...@@@@@@@@.@#.@.#@....@@@.....@@.",
".@@@..@.@@.#..@@@.@..@@@@.@@.@@@@..@..@.@@+.@@..@@..@.....#@.#@@.@.+.+@.@.@@@@..++.@...........#@.@@.@@@.@@@@@.@@.@@@@..@.@.+@..",
".......@@@.#.#.@...@@@....@@@@+.@.@@.@.@@+..@....@..@...........@@@@@@@@.@@@@.@+.@.@@.@@.@.....#..@@@@.#@@@.@@@+.@..@@.@.@@+.@@@",
"..@@@@@+...@@@@@..@.@.@+..+@@@..@@...#@@@...@.@.@..@...@@...@.@@@@..@...@.+@.@@@@+..#.@@...#....@@@...@@@.@@..@...@@+@..@..@...@",
".@+.@@@.@...@@@..@@...@.@.+..@.@....#.@.@@....@@......@.@.@@@.@+....@.@@.@..@@.@@@@#..@.......#@@@......@+@.@@@..@@.@....@...@@.",
"@@..@.@@.@@+@..@+@..@@@@..@@@@.@.@.#@.@..@..@.@.#@@@...@.........@@@@@..@@@@++..@@#@#.@.@@#@.@@@@...@.@@@@.@..#......@@...@.@.@.",
"@.@@.@.@.@@@...++@@.@.+...@@..@@@@..##.@@+#..@.#@+.#@.@@....#.....@@....@+@.@@@@@....@....@@@+@@@.....@.@..@..#.@@.@@@...@@.@..@",
"@@..@+@..@+..@+@....@.@..@@@@...@#..@.@.@@##@..@@@..@@.@#.....@.@@.@.@@@@@@@+@#...@@.....@..@....@@+@@@+@@.@...#@@..@@@..@.@..+.",
"...@.@.@.@@@.@@..@.@@#@@.@@..@.......#@@@.#....@@.#@@@.@....@..#@.@.@.@@@@@+@.@.@...@@..@@@.....@@+.@@++..@.#.#..#.@@@@@@.@.@...",
"+@.@+@@@...@.#.@@@.#..@...@@@..@.@@@.@..@@.#.@.@@@.@@...@.#@..@#+@@..@..@.@......@....#...@@@@@@@...#.@......##....+@...#......@",
"@@++@@.....#...@@@.......@.@@@.@@@@@@.@..@#@.@.@@.@....@..@..@..@.@...@.@..@@..#@..@#....@@@+@@@..@@@@@.@..####...++@...@.@.#@@@",
"@.@..@@.@@@@@.@@@.#.@.@.@@+@.@@@@+@+@.@.@@..@.@.@+@@.@@@@@.@....@@..@..@@@.....#@......@...@#@.###.@.+...####.@.@.+.@@.@@@@@@..@",
"@...+@...@@.@.@+..@@...@@@..+@@@@@@.@.@.@@@.@.@.+@@.@@@........@.@.#..@#...#......#.##.@.@@.@@#..@.@@@...........@@+....@...@@..",
".+@@.@@.@..@@.@....#..@..@@@..@.@@..@..@#..@..@@+@.....@........@@.@@@..@@#.@....@@.+@+.@@@.@.#.@.@.@...@#..@@.@..+@.@.#@@@.@..@",
"@@@@@+@#..@@....#.....@.@+@..@@@#..+#..#@@.@@@@+@.#..#..#.@.@@@@@.@@@@.@.@.@@@.@.@@@@@@.@@@..@.@@@.@..#......@...@@.....@..@...@",
"@@@@...@@@@..@..@.@.@..@@.#@@.@..@...@........+..@..@........@..@@@@@...@...@@..@..@...@+..#@@..@@..#@....@.+..@@.@.@.@.@.@.@@@.",
"@@@.@@...@@#......@....@..@..@....@@...#@#..@.@..@#..#...@@.@.@+.@@@.#...#@@...@..@..@@@@...@#@.@..@...#....@@.@..@@....@@@@@@@.",
"@..@.@.@@@.#..@@..@@....@.@@@@@.....@.#@.@.@@@@..@@.@@@@...@@@@.@.........+...@#.#@.@@..#......@.....@.@....@.@.@@..@@@.........",
"@@@.@+@@@@..@....#@...@@@..@@.@..@@+#.@@@.@+@@@#++..@@@@@@@.@@.+#..@.#..@.@..@.#.#..@...#..#.#.@@@.@..@.....@+.@.@@@.@@..@.@....",
"@@@.@@@.@@.....@#.....@@@.......@@@@.@@..@@@.@.@@.#@@@@.@..@@@@...@@.@@@@@..+.@...@@.@#.@@....@@.@.....@..@@@..#@@.@@...@+..@@..",
"@@.@.....@...@.............@...@@@@@.@....@.+@@.@@@@@@@.....@..@.@..@.@@@.@@@.....@.@@@@......@.@.........+@@@#@..@+@.@+@@.@@..@",
"@@.@@+@@@@.#@.@.+..@+.@@@...@@@@@@@@..@@.@.@.@#...@......@@@@+....@@.@.....@.@#.@.@@.@....#...@.@..@@.@....@@@@@@@@.@@@.@..@@@@@",
"@@++@.@.+.....@@..@@.@.@...@@@@@@@@#.@.....@....@+...@.@.@@@@@.#@@...@.#.@@@.#....@@.........@@@@@.@.#.........@..@@......@@..@.",
"@@++....@...@...#......@@..@@@@.@...+@...@@@..@@+........@..@..@.@...#.@@..##...@@@#.#....#.@.@........@..@@@@.@#.@@.@@@@@@@@.@+",
"++@@@@.@@...@..#.@..@.@+.@@.@@@.@...@...@@@@...@@......@.@...@...#..#@.@@.#..@.#@..#.......@.+..@..@..@@@@.@@@@@..@@@++@.@@@.@++",
".+@........@....@@#..@@..@.@...@#..@.........@@@.....+.+@@..@.....@............@@..@@.@@..@.@.....@.@@...#@.@...@@@.@@...@.@@+@@",
"@+.....@.......@@.....@@@@..@...#.@@...@.#...@.@###.@+@@@@...##..#.@.@....@..@.@@@@+..@@@..@@.@@@@@.@...##@.@.@@@#..@...@@@@@@@.",
"++..@.@@...@.....@..@.@@#@#...@@..@@.#@#..@.+@#...@@@@..@#......#@+@@.@@@@..@@@..@...@@.#@@@.@..@@@@..#...+......@++@@.@+@@..@@@",
"@+@@.@...@@.@#....@.@....@#..@@..@@......#.@...@.#@@@@.@...#.#...+.@.@@+@..@@.@.@@@@@@@..@@..@@@.@.@#....@.@...@@@@@..@@@@..@@@@",
"..#@....@#..#.#@...###..@@..@....##..#.##...@...#.@@@.....#.#.@.@.@.@@..#.@@..#@@@.#@@...@.@@@..@@....@.@..@.@@@@@...@@@.@.@@@+.",
"@@@@..@.##.##.@..@.#..@@@....#@@.....@.#@..@@@.#...@....##.##@@@@.@...@....#.#.@@....#...@@@@@..@@...#.@##@@...+...@@@@.@.@@@@..",
"@@@..##.######.#...#@.@...#..@.@#@@@@.#.#..@@@...@..#.##..#@..@..@.@.@.@.@@.@@@+..@....@#.@@@@.@@...@@@.#.@@..++.@@.@.@.@@..@+@@",
"@@@...#..##..###..##.@.........@@@..@....@@@.##@.@.@...#.#.@#..@.@@...@@@@.@@@@@@.@..@...@@@@#.@@@@..@....@.@@@...@@@@@.@+@@+@@@",
"@@#.##@.#@......@...@....@.@@..@.....#.#.@.@..@....@....@.#@..@@....@@@@........#...@@.@@@.@#.@@..#@....@@.@@@@.@.@@@....@..@@@@",
"@..@#..@..#.@@.@@@.@@@...+.@@@@@#.@.....@.@#...#..........@@@..@@@@.+@@@@.#....@.@@@@.@@@.@...@@..@@@...@.@+@@@@..@...@.@@.@@+@@",
"......@...@@..@..@.@...+@@@.@@@.#..@@.#.@@..@...@@.......#+@@@@.@@.@@@##..#..@.@@@@@@@@@@@.@...@..@...@..@@@.@..@.@@+@.@@@.@@@..",
".@.#..@..@..@.@.@.....@@@@@@@@.#..@..#.@...@@..@...#...#..@@.@@.@..+@@...##.@.@@..@@@.@@@@..@@.@.......@@@@....@.@++.@@@..@.@@@.",
".@..@...@@#.........@@+@@@@...@..@#..@.@..@##.#......@#.@.@.@@.@@.@...#.#.@@@@+.@@.@.@#.....@@.@...@.@@.@@..@..@@...@.....@@@@#@",
"...#.#@@.@.@#......@@@@.@@....#.....@@....##..#....@...@...@@@@@.@@.@.#..@@.@@....@@.....@..@@.@.@@@@.@#@.@@.#@+.@...#@..@@@@..@",
"@.#@#@.@@.@..@@..@..@@@@@.@.+@@.#...@@.#@...@..@@@.@#.@..@++.@..#@.@.@.#...@@@...@.@..#.@@#...@..#.@...@.+#..@+@###.......+....@",
"@.....@.@@@@@.#...@@.@@.@.@@...#.@@.@.##.##.....@@.@.@#..@@@@@#..@....#..@@@+@@.@@@....@.@#.@@.#..@.##..@@@@.@@...#.....++.#..@@",
"@....@@@.@#.#..@.@...@@+@@...#..@..@....@@@...@@@....@@.@@.@@@@.@.@..@.....@@..@@.@...@@..@@.@..#.@.....@@@.@..@#.@@@.@@@+@@@.@@",
"...@.+.@.@..#@.@....@+@+@@...#@...@@..@.@@....@@@@.@@@@@@+@@@@@.@....@.@.@@@@..@@+@#@+@.@@.@.........@+@@@@@@.@...+@.@@@+@@.@..+",
"@#.@+@..@.@.@@@@...+@@@...@#........@...@....@@@..@@.+..+..@@......@.@.@..@@@.@@@#......@..#..@...@@@@++@....@@@.@@@@@+@+@.@.@@.",
"...+..@#....@@@@..@@+....@.....@..@@#@..@@..@.@.@@@.@+@@..@+.@#@.#@#@@@@..@@@..@@...+@@.@.........@@+++..@.+.+@@@@@@@.@+@@@.@.@@",
"@.+.@+.@...@@@..#.@@@.@@@@#...@@.@..@.@..@.@@@@@.@@.@....#+....#.@@@@@..#@@@@.@@@@+@@@.@++#@@@@@.@.@.....#@@+.@@.@@.@.+@@@#...@@",
"@@@@@@....@.@@..#.++..@+...@..@@..@.@@@@@@..@@.@@@@.@...#..@#...@@@.@.#...+@..@@@@@@@@@++@@.@....@@.@@...@@+..@@..@@@.+....@@.@.",
"@@.@@@....@+.@....@@.@@@#.@..@@+..@@@..#@...@@@.@+...@....+@#...+@#.@+.@@@@@.@@@@+@.@.@@.....#.....@@@@.@@@@@.@..@...@@+@.@@.@.@",
"@@@+.@..@@@.@....@+@@@@#..@.@@+@.@.@@..#...@.@@@@@..@..@.@@.@.@@@@@@+.@@@@@@@@@.++..@@....###@.#.@.@@.@@@++@..@@@@..@.@@..@.@.@.",
"++@@@..#@@.@.@@@......#.@..@#.....@..@.@@.+@++@.@@..@.@...@..@@@@+.@.@@@@@@@@.@@@@@@@.@..@..@...@.@.@@+@@@@.@@@@@@@@.+@@@@@@@@@@",
"@..@....+@@#@@@.@.@@..@........@#@.#.@@..@@@@@..@@.@@@...@..++@@@@..@+@@@+@@@@@@@@@.@...@@.@..#.@@@.@@@+.@.#@@@+@@@@@++@@@..@..@",
".@.....@.@.@@.@@@.....#..@@..@+@@..@@@.@@@@@@.@.++@...@@..@@+@.@@@.@+.@+@@@.@.@..@...@@.@##....+@@@@++.@@@.@@@@@@.@@@.@@@@@@@..@",
".@.+.@@.@@.@@....##@.@.@@@..@@.@.@@.@.@@.@..@.@@@....@..@@++@@.@@@@+@..@@@@@.@@..@@.@@...#..@.@@@.@@@.@.@@@+@+++.@@+.@@@@@@@.@@@",
"@@+@+.@.@@@.#.@.......@@..@.@......@#.+@..@@.@.@@@.@.@@+.@@@@.+.@@@@@@+.@......@@@.@@....#@@.@.@@@..@@@@+@@@.@+@@@@@..@@.@@..@@@",
"@@@@@@..@@....@.##..@@..@@@@...@....@@..@...@@@+...@@@+@@@@@.@@.@@@@@+@@..@+..+@@.@@..@#..@@.@@@..@@@+@+@.@+.@@@@@@@@@..@.@@@.@@",
"@@@.....@.@@.@.......@.@@@.@.@@..@@..@.@..@@.@....@@@.@@.@+@+@@@.@@@@@..@.@...+@.@...@...@@@.@...@@@+@@.@@+@+@@+.@@@@@@+@@@+@@@@",
"@@.....@@@..@@..#.@@@@@@@.@@....@@..@....@@.@@.@#@@@@.@.@@+@+.@.@@@@@@@@@.@@@@@@@@...@.@..@......@@+@@.@+@@@@++@@@@+@..@@@@@@@.@",
"@...@@@..@.@...#....@@@..@@@..@@@@.@#@@.@.@@@.@#@..@..@@.@@@#.@.@@@...@@.@@@.@@@@@.@+@@...@@@+@+@@@@+@@.@@@@@@#...@@.@@.@@@+@.@@",
"@...+@@@@@..###..@.@@@...@@@..@@.#.@...@..@.@+......@@..@@...@@@@@..@@@.@@@+.@.@@@@@@@...@@@@@@@@+++.@@@..@.@@.@...@....@@+@..@.",
"#.@+@@@#..##..@.@@@.@@..@@...@@.#.@..@@@.@@@@@.@@@.@@@.@@@@@@.@@@@@@@@.@@@+@.@@@@+@@.@....@+.@@@@.+@.@@@+.@@@@@..@+..@.++.@...@.",
"@@@@@@.#.@...@...@@@@@..@....@@#..@@.@@.@#@@@@@@@.@@@@@@@@@@@@@@@@@@.@@@.@@.@@@@++.@+@@.@@+@@@@@@@@.++@+@.@@@@.@.@.@.@@@@@.@..##",
"@@+@....@@.@@...@@@@@..@.@@.+@....@......@@@@......@@@.@@..@@@@@@+@@..@+@@.@.+@+@@.@..@.@.@+.@.@@@....@...@@.+@@@+@@.@@@@@..@@@@",
"+@@@.#..@+@+..@@@@@+.@..@.@@@.##@#.....@@@@@.@@###@@@@.@@@@@@.+@+@@.@.@..@@@@++@@@@@..@.@#++@@.+@@.@...@..@@++.@@@+@@@@@@..@@+@@",
".@@...@@@@.#..@@@@@.@#.@...#.#..#@.@.......@...@@.@@.@...@.@@.@@@.....@+@@@+@@@@.@##@@...@+@@@@@......@@@@@+.@@@+@@@@..@.@.@@+.@",
"@@.@...+@@..@@@@++@+#..@@@...#.#@@.@..@@.@...@...@.@..@@.@@.@@@@@....+@+@+@$++@..@.@@...@@+@@@+@@@.@@@@.@.@@+@@@@@@@...@@@@@++@@",
"@....@@...@@+.+.@.@.@@@@.@@....@@.@.@.@.@@@@@+..@.@..@.@@.@@+@.@@..@@@@.@.@#..@.@.@.@@..@.@@..@@@@@@@.@@@++@@@++++@...@.@@..+@.@",
"...@@.@..+.@@@.#@@...@@+@@@@...@@...@@..@@.@@@...@..@@@@@@@@@..@..@@@+..@...@@#......@..@.@.@+@@...@.@.+++@@.@.@@....@..@@.@@@.@",
"@.@..@.@.@+@@@.@@@@.@@@.@@..#@...@@@.@@@@.@@@+..@..@@@@@@@@.@..@...@@.@.@@@...@..@.@@....@..@@....@@..@..@@@+@++.@....@@@+..@..@",
"..@@@@.@.+@@@@.@@...@@@@@..#....@.@@@@@.@.@+@@....@+@@@@@.@@.@@..@@...@#@...@@#.@@@...#..@.@@...@@@....@++@+@@@+@@@@@.+.@..@@.@@",
".@...@.@@.+@.@..@..@@@@@#@...@@@@@@@@.@.@+@@@.#...@+....@@+@+.@@+..+@@@@@@+.@+@.@@..@.@@@@.@@+.@@.@..+@@+@@@.+...@...#.@@@.@@@@@",
"...@@+.@.@+.@@.@...@....@@.#...@.@++@@.@@@@..@.@.@@@.#@+.@+.@@@@@.@@@@@@++@.+@.@@@.@...@@.++@@@@@@.@.++@@+@@@+@@@@..##@+@.@@.@@.",
"@@@.+@..@@.+.@...@+@...@....@@@@..+..+..+@.@++....+.#.@@@@.@.@@.@@@.@.@@@@#.+@@@.@@.@@@@..@...@.@@@.@@.@@@.@@@...@.#..@...@..@+@",
"..@@@@@@@++@...@@@@.@..@...@.@...+@@@@@@+@@+@@...@@...@@.@.@@.@@@@@...@@...@@@@@@@.@@@@@@..@@@.+..@.@@+@@.@.@@.#@@###@@.....@@@.",
"@@@@.@@@.@.....@@..@..@...@.##.@@@@@..@@@@@@..##...@@.@..+.+@.@....@.@.@@@.@+.@...@@....#@.@@@.....@@@.@.@.@.........@@@@@@@@@.@",
"@@@@@@@.@....#@+..@@@@@...#.#.@@+@@@@@@+@@@@..#@..@@@...@+@@@@.@.@.@..@@...+@@.@.@@@.@.#@@+@@@.@@..@@@@..@@..@..@@#@@@@@+@@++.@+",
"@@@..@..@.@@@.@@..@@..#@.@@.+@+@@@@.#@@@@.+@@.@..#@@...++@@+...@.@@@...@@@@@@...#.....@@@@@.@@...@+@@...+...@+.@@.@..@@@.@@@.@++",
".+.@@..@.@.@@.@@.+@#..@@@..@....@.@..@.@.@@....#..@.@.@+@@..@.@.@....@@@@@@.........@@@@@.@@@...@@@@@@@@@.@.@@@@...@@.@@.@@@.+++",
"@...@@+@@....@@@@@......@...@@@@@@..@@@@@+..#.##.@.@.@@@@@.@.@#@.@.@.@@@@@...@.@..@@@.@@#.@.@.@@@..@..@.@.@@@@........+.@@@++.@.",
".@..@+@@...@@@@@.@.#@@.@...@.@.@@@..@@.@+@#...#@.@.@@@@@.@.@..#...@@@@@+@..#@@@@.@@@.@..@.@.@...@@..#....@.@++.#......@..+@@@@@.",
"@@..+@....@@@@.+@@.@@@@@.@+.@..@@.@.@+@++@.#..@...@@@@@@+.@#@.#..@.@.@@@.@@@@@@#@.@@.@+.@@@@.@.@@.@.@@.@@++@.@....@+@@@.+@@@@.@.",
"@@@++@.@.#@@@@+@@@.@...@.+@.@.@....@@@+@@.#...#..@..+...@@#@.....@..+.@.@@@@@@...@@.+@@@@@@@.@.@..@@@.+@@@@.@.#.@@+@@@.@@@@..@..",
"@@+@.@#....@@@.@...#@@@.@......@@.@@@..@...@..@.+@.@.@@.@@@.@...@@@@+@.@@@.@@.+.@@@@++@@@..@@@@.@@@@@+@@@+...@@.@.@@@@+@.@.+.@@@",
"@+..@.....@@@.@.@..@..@@.......@@.@...@...@...@@@.@@@@@.@@....@@..@+@.@@@@@.@..@@+@@@@@@...+@@.@.@@@@@@.++..@@#..@++@@..@@@@@@@+",
"@..@.@...@@+.@@..@@..+@...@@@@+@.+.@@.@@.@@@@@...@.@..#.@@#..@...@@..@@@@@...@..@..@.@@...+.@@.@@@++@.@@@@..@...+@+@@@@@@@+@.+@@",
"@...@..@.@@..@..@@..@@@..@@@@+@@@@@@..@@@@@.@#.@.@..#......@...@......@..@...@.@.@.@@@..@+@.@@@+@@+@@+@@@@..@..+@@@@.@.@+@+@@@@.",
".@.@..@@@.+@@@..@.@..@..@@@@.#.@..@@++@@@..@..@.+@.@.@.@..@.......@@@@@@@@..@@..@.@.@@@+@..++@@@@..+..@@@@#.@@@@.@@@@@.@.@++@@@@",
".@...@.@.@@@..@@@......+.@@@.@@@.@.@@.@@..@@@@..@.@@..@@@@@..@@@..@..@@.@+@@@.@@.@..@@.+..++@@.+..@@@@@@@...@@@@.@@.@+@@@@@@@.@.",
"@.@.@@@@..@@@@@@+@@@.@@..@@@..@@@@@@@+@.@+@+..@.@@....+........@#.@@.@.@@@#..#.@@.@@@@..@.+@@@@..@@+..@....#@@..@..@@+....+@.@@.",
"@@..@@@@@+@@@@@+@.@@.@@@@.@...@.+@@@.@@.@@@@@.....@.@@...#.#..@.@@@..@.+@@..@.@@@@.@@#.@@@..@.@@.@@@.@....#.@@...@.@@+..@@+@@+..",
".@.@.+..@+..@@.@#.@@..@@.@@.@.@@@@@.@@@.@@.......@.@@@..#..@@@@..@@@@@+@+.@@.@@@+.@@#@+@@@@@@...@...@..@@@+.+@@.@.@@@@..@@.@##.@",
".@.@@@@@++@@@@...@..@+@@@+.@@.@+.@.@@@.@+@@....@@@@@@..#..@@@@..@..+@@@@@@@.@@++@.@@.@+@@.@@..@@..@@#.@@@@.@+@@@@@@@@@.@.@@..@.@",
"..@@+@+@@@#.@@..+.@.+@+@.....+@@@+@@@.@.@.@@@@.@...@#....@.@@.@@.@@@@@@@.@.@@@+@@@@@@@@...@@.@.@..@..@@@.@@+.....@....@.@@#.@@@@"};
