/* XPM */
static char * weights2_xpm[] = {
"64 64 234 2",
"  	c None",
". 	c #DCDCDC",
"+ 	c #B3B3B3",
"@ 	c #9B9B9B",
"# 	c #909090",
"$ 	c #989898",
"% 	c #B7B7B7",
"& 	c #DADADA",
"* 	c #ECECEC",
"= 	c #B2B2B2",
"- 	c #7D7D7D",
"; 	c #949494",
"> 	c #B9B9B9",
", 	c #D3D3D3",
"' 	c #D5D5D5",
") 	c #919191",
"! 	c #818181",
"~ 	c #8D8D8D",
"{ 	c #C9C9C9",
"] 	c #E2E2E2",
"^ 	c #BBBBBB",
"/ 	c #8A8A8A",
"( 	c #999999",
"_ 	c #D9D9D9",
": 	c #9A9A9A",
"< 	c #EAEAEA",
"[ 	c #DDDDDD",
"} 	c #CCCCCC",
"| 	c #BEBEBE",
"1 	c #B1B1B1",
"2 	c #AAAAAA",
"3 	c #ACACAC",
"4 	c #AFAFAF",
"5 	c #BDBDBD",
"6 	c #E8E8E8",
"7 	c #C7C7C7",
"8 	c #A1A1A1",
"9 	c #ABABAB",
"0 	c #D4D4D4",
"a 	c #828282",
"b 	c #B4B4B4",
"c 	c #747474",
"d 	c #585858",
"e 	c #3D3D3D",
"f 	c #232323",
"g 	c #0D0D0D",
"h 	c #060606",
"i 	c #020202",
"j 	c #030303",
"k 	c #090909",
"l 	c #1A1A1A",
"m 	c #303030",
"n 	c #464646",
"o 	c #535353",
"p 	c #555555",
"q 	c #5E5E5E",
"r 	c #7A7A7A",
"s 	c #979797",
"t 	c #E0E0E0",
"u 	c #A5A5A5",
"v 	c #C0C0C0",
"w 	c #050505",
"x 	c #010101",
"y 	c #070707",
"z 	c #333333",
"A 	c #595959",
"B 	c #838383",
"C 	c #D1D1D1",
"D 	c #E5E5E5",
"E 	c #F0F0F0",
"F 	c #F4F4F4",
"G 	c #F7F7F7",
"H 	c #BFBFBF",
"I 	c #C1C1C1",
"J 	c #A4A4A4",
"K 	c #B0B0B0",
"L 	c #DEDEDE",
"M 	c #D8D8D8",
"N 	c #BABABA",
"O 	c #CBCBCB",
"P 	c #CECECE",
"Q 	c #CFCFCF",
"R 	c #959595",
"S 	c #545454",
"T 	c #FAFAFA",
"U 	c #FEFEFE",
"V 	c #FDFDFD",
"W 	c #FBFBFB",
"X 	c #FFFFFF",
"Y 	c #FCFCFC",
"Z 	c #F2F2F2",
"` 	c #A7A7A7",
" .	c #B5B5B5",
"..	c #C6C6C6",
"+.	c #CDCDCD",
"@.	c #868686",
"#.	c #C3C3C3",
"$.	c #D7D7D7",
"%.	c #D2D2D2",
"&.	c #D6D6D6",
"*.	c #626262",
"=.	c #B8B8B8",
"-.	c #040404",
";.	c #080808",
">.	c #343434",
",.	c #F9F9F9",
"'.	c #3C3C3C",
").	c #A9A9A9",
"!.	c #C2C2C2",
"~.	c #969696",
"{.	c #373737",
"].	c #F6F6F6",
"^.	c #323232",
"/.	c #474747",
"(.	c #787878",
"_.	c #000000",
":.	c #212121",
"<.	c #242424",
"[.	c #171717",
"}.	c #0A0A0A",
"|.	c #151515",
"1.	c #262626",
"2.	c #3F3F3F",
"3.	c #676767",
"4.	c #666666",
"5.	c #C8C8C8",
"6.	c #111111",
"7.	c #A6A6A6",
"8.	c #E3E3E3",
"9.	c #A8A8A8",
"0.	c #727272",
"a.	c #3A3A3A",
"b.	c #6C6C6C",
"c.	c #EDEDED",
"d.	c #F8F8F8",
"e.	c #0E0E0E",
"f.	c #9C9C9C",
"g.	c #8E8E8E",
"h.	c #E4E4E4",
"i.	c #6D6D6D",
"j.	c #131313",
"k.	c #4C4C4C",
"l.	c #929292",
"m.	c #CACACA",
"n.	c #ADADAD",
"o.	c #777777",
"p.	c #141414",
"q.	c #EBEBEB",
"r.	c #F3F3F3",
"s.	c #0B0B0B",
"t.	c #B6B6B6",
"u.	c #DBDBDB",
"v.	c #D0D0D0",
"w.	c #7E7E7E",
"x.	c #2C2C2C",
"y.	c #7C7C7C",
"z.	c #F1F1F1",
"A.	c #898989",
"B.	c #202020",
"C.	c #E1E1E1",
"D.	c #0F0F0F",
"E.	c #5B5B5B",
"F.	c #3E3E3E",
"G.	c #767676",
"H.	c #9F9F9F",
"I.	c #414141",
"J.	c #E9E9E9",
"K.	c #696969",
"L.	c #575757",
"M.	c #AEAEAE",
"N.	c #222222",
"O.	c #EEEEEE",
"P.	c #454545",
"Q.	c #C4C4C4",
"R.	c #A2A2A2",
"S.	c #565656",
"T.	c #1F1F1F",
"U.	c #393939",
"V.	c #4D4D4D",
"W.	c #939393",
"X.	c #494949",
"Y.	c #3B3B3B",
"Z.	c #1D1D1D",
"`.	c #808080",
" +	c #C5C5C5",
".+	c #878787",
"++	c #444444",
"@+	c #BCBCBC",
"#+	c #797979",
"$+	c #515151",
"%+	c #858585",
"&+	c #757575",
"*+	c #9E9E9E",
"=+	c #5A5A5A",
"-+	c #1E1E1E",
";+	c #434343",
">+	c #6E6E6E",
",+	c #1B1B1B",
"'+	c #8B8B8B",
")+	c #353535",
"!+	c #2B2B2B",
"~+	c #191919",
"{+	c #383838",
"]+	c #8C8C8C",
"^+	c #6B6B6B",
"/+	c #E6E6E6",
"(+	c #7F7F7F",
"_+	c #DFDFDF",
":+	c #4E4E4E",
"<+	c #E7E7E7",
"[+	c #1C1C1C",
"}+	c #2D2D2D",
"|+	c #888888",
"1+	c #7B7B7B",
"2+	c #F5F5F5",
"3+	c #A3A3A3",
"4+	c #4F4F4F",
"5+	c #848484",
"6+	c #101010",
"7+	c #616161",
"8+	c #2E2E2E",
"9+	c #A0A0A0",
"0+	c #9D9D9D",
"a+	c #121212",
"b+	c #272727",
"c+	c #0C0C0C",
"d+	c #5F5F5F",
"e+	c #181818",
"f+	c #8F8F8F",
"g+	c #606060",
"h+	c #636363",
"i+	c #505050",
"j+	c #2A2A2A",
"k+	c #6F6F6F",
"                                                                                                                                ",
"                                                                                                                                ",
"                                                                                                                                ",
"                                                                                                                                ",
"                                                                                                                                ",
"                                                                                                                                ",
"                                                                                                                                ",
"                                                                                                                                ",
"                                                                                                                                ",
"                                                                                                                                ",
"                                                                                                                                ",
"                                                                                                                                ",
"                                                                                                                                ",
"                                                                                  . + @ # $ % &                                 ",
"                                                                          * = # - ; > , . ' > ) ! ~ {                           ",
"                                                                      ] ^ / ( _                   & : ~ '                       ",
"          < [ } | 1 2 3 4 5 , 6                                     7 8 9 .                           0 a b                     ",
") c d e f g h i j k l m n o p q r s t                             4 u v                                   $ 8                   ",
"w w x w y z A B > C D * E F G F E D H I                         J K 5               D L [ M 7 v N O } P Q 0 R 3                 ",
"i i x w w S 4 * T U V W V U X U Y Y Z p 7                     `  .|           ] | > ..+.| @.a 2 #., $.%.&.+...*.=.*             ",
"-.i j i x j ;.>.s 6 U V X U V V ,.G V '.c                   ' ).% <         v !.G G ' ~.>                       Q 2 #.          ",
"j i x x j x i -.w {.3 F V T V U U U ].^./.                  ; O &.        O (.Z ] K 5                               O 8 t       ",
"_.x i j :.<.[.}.-.j |.a * W T ,.,.T [ 1.2.                Q K ^           3.4.5.).L                                   _ / .     ",
"_.x j 6.7.8.5.9.0.a.y y b.c.T Y d.V ` e.d                 f.' 5           q g.).h.                                      [ i.h.  ",
"_.x i j.} U Y X W d.h.# k.c Z G W c.z -.-                 l.m.8.        < ..n.                                            0 o.< ",
"_.x x p.O V ,.V T W V W q.I _ W r.- j s.).              C t. .          7 5 u.                                              K s ",
"j x -.|.% V Y U Y ,.U Y ,.V ,.,.; e.-.1._               ^ +.t.        &.v.=.                                                  w.",
"w -.x.y.f.,.W O T W U V W W U z.A.B.-.b.                = %.N         H | C.                                                  0 ",
"j k D.1 D ,.O m . Y Y U Y W U W ,.0 E.F.3               n.%.^       , [ N                                                       ",
"y }.h G.T E o -.9.V U V Y W Y Y V Y r.H.I.y.J.          K m.%       ..m.'                                                       ",
"j I.K.L.J.M.D.-.q ].U V T V Y X V Y T W &.o d u.        I % b       P I                                                         ",
"i B.+.Z T s w -.N.u.V Y U X U X X X U X X O.r P.M       t g.Q.]     0 =                                                         ",
"D.R.G U W n.}.i w @ W V X X X X X X X X X X O.y.S.<       K.*.`   & J.M.                                                        ",
"i.T U W U , T.x w U.< W X X X X X X X X X U W r.V.W.      R.}.L.  !.].3                                                         ",
"%.T Y Y X z.n x x g A.Y X X X X X X X X X X W T J X.      t Y.|.I =.].+                                                         ",
"G Y V U Y V ! j -.j Z., U U U X X U X U X X d.W #.>.L       9 `.u  .E 3                                                         ",
"V X V U X V  +e._.j x 2.] W V U U ,.X W _ 7 d.d.O ^..         .+ ..+. M.                                                        ",
"V X U X Y X O.k.j j -.j ++{ G T V ,.q.B [.w.,.T u a.h.          8 I @+|                                                         ",
"V U U U Y U V 9.-.i j j y 1.~ &.c.].#+}.w .+T z.$+p             &.%+@ m..                                                       ",
"T Y V U V V W d.{.-.j h _.-.-.<.7.| ;.i s.&+F @ s.!         D *+=+-+Y.. I                                                       ",
"[ V ,.U Y Y V Y 7 1.i i -.i j m { ;+y w h ^.>+6.e.v.q.| y.2.s.;.,+p (  +n.                                                    L ",
"'+,.W U V U Y V ].t.)+j j j !+> u.'+7.i.~+i h j T.E.{+z F.K.s Q.. Z T =.%.%                                                   ]+",
"T.' d.X U U W U G T u.# ^+a C W Y W /+g.!+y w D.Y.o.9 0 F Y U W V Y U [ v (+8.                                              H '+",
"-.^.v.U Y X V V X T W T W W ].d.G Y V } x.^.%+0 T T V Y V X Y Y Y Y T T 7 :.L.                                            _+o.8.",
"i j :+E V V U V Y Y d.V Y V T V ,.Y V F = <+,.V V U V U U W ,.W T V V U ,.b [+c                                         L #+v.  ",
"w i }+_ Y T U ].G Y U W U U X X X U V U W U V U U X X X U X X X X V Y X V W /.|+R.                                    & 1+ +    ",
"i j }.= Y T 2+'+. X V U X X X X X V W Y U W X X U U X X X X X X U X X W W ..D.,+k.3+,                               M.(.0       ",
"j j x 4+F W &.T.#.T U V X X X X X U W ,.U V X X X V X X X X X U X V U Y c.E.i -.s./.5+J %.                      I (.R.q.        ",
"w x x 6+).,.@ i @ Y V W X X X X U V W V t T U X X U X X X X X Y X V X W ^ D.j y i y U.`.y.7+s P _+h./+8.L ..: y.: &.            ",
"6+j i i B.5 d i 3.,.V W X X X X X U ' * H.| Y X X X X X X X X U V U T | 8+_.-.x w -+#.  8. .9+# |+a B a 5+0+Q.                  ",
"&+;.-.j j p.6+_.a.J.V W T Y V W V X 3 A.= l M.d.+.O.V Y W Y X V Y c.'+a+h x w j b+..                                            ",
"< L.k i j j j i g } V U W W T Y U Y 9.f |+D.-+B ! 7+_ d.Y V d.d.5.S.c+y -.j i x.=.                                              ",
"  <+S y w }.-.i i %+W U W V W ].V U ^ 6.D.e.j w 6.w 8+]+h.r.m.i.,+i w w i w 1.#.                                                ",
"      ]+l h j h j !+C.U 2 K W U V T t f ;.w -.h -.x j y w }.h y i w i w -.Y.h.                                                  ",
"        H a.s.j j k R T ~ :.9 2+Y W ,.A w i -.i j x x j i i -.w h i j s.d+[                                                     ",
"          h.! e+j -.1./+3+-.|.f+< V V =.l j x x x _._.i _.i i i x ;.;.`.q.                                                      ",
"              &+j j -.g+5 ~+;.j 2.n.r.].|+}.x _.j x x _.i j j -.w b+M.                                                          ",
"              _ s.i -.k h+8+i j w 6+{.a u P.w _.x x x w x j h ;.i+}                                                             ",
"                >+y i w g c+x y i i -.h k y j _._._.j x j -.e+5+<+                                                              ",
"                8.U.j i x -.j _.i -.i i -.i x j -.x x i 6.*.O                                                                   ",
"                  5.j+w -.j j y i _._._._._.h j ;.k x.k+'                                                                       ",
"                    | e+-.i i x i _._._._.i j j.0.9.u.                                                                          ",
"                      5 b+w j j x _._._._.x s.!                                                                                 ",
"                        M g+c+j j _._._._.j b.                                                                                  "};
